<?xml version="1.0" encoding="utf-8"?>
<!-- Generator: Adobe Illustrator 16.0.0, SVG Export Plug-In . SVG Version: 6.00 Build 0)  -->
<!DOCTYPE svg PUBLIC "-//W3C//DTD SVG 1.1//EN" "http://www.w3.org/Graphics/SVG/1.1/DTD/svg11.dtd">
<svg version="1.1" id="Vrstva_1" xmlns="http://www.w3.org/2000/svg" xmlns:xlink="http://www.w3.org/1999/xlink" x="0px" y="0px"
	 width="547.844px" height="106.974px" viewBox="0 0 547.844 106.974" enable-background="new 0 0 547.844 106.974"
	 xml:space="preserve">
<g>
	<g>
		<path fill="#404041" d="M197.49,18.068h-26.593v70.679h15.742V63.314h10.852c14.356,0,24.222-9.256,24.222-22.619
			C221.712,27.543,211.846,18.068,197.49,18.068z M195.904,49.778h-9.179V31.744h9.179c5.961,0,10.075,3.373,10.075,9.03
			C205.979,46.274,201.865,49.778,195.904,49.778z"/>
		<path fill="#404041" d="M255.069,18.068H229.46v70.679h25.513c21.328,0,35.597-13.457,35.597-35.3
			C290.569,31.604,276.301,18.068,255.069,18.068z M254.372,73.869h-9.169V32.903h9.169c10.858,0,19.767,6.406,19.767,20.544
			C274.139,67.594,265.23,73.869,254.372,73.869z"/>
		<path fill="#404041" d="M344.854,33.035V18.068h-45.541v70.679h15.879V62.32h26.072V47.957h-26.211V33.035H344.854z"/>
		<path fill="#404041" d="M394.169,64.265V18.068h-9.264l-35.032,46.807l1.038,6.693h35.258v17.179h8V71.568h10.59v-7.304H394.169z
			 M386.169,64.265H359l27.169-36.503V64.265z"/>
		<path fill="#404041" d="M484.912,53.369c0-19.855-16.48-36.512-36.128-36.512c-19.507,0-36.198,16.657-36.198,36.512
			c0,19.847,16.691,36.59,36.198,36.59c8.523,0,16.491-3.207,22.75-8.438l8.228,7.226l5.15-5.97L476.99,75.9
			C481.915,69.581,484.912,61.798,484.912,53.369z M471.106,70.749l-11.287-9.771l-5.144,5.971l10.984,9.553
			c-4.717,3.809-10.6,6.058-16.876,6.058c-15.218,0-28.065-13.362-28.065-29.191c0-15.741,12.848-29.111,28.065-29.111
			c15.235,0,27.979,13.371,27.979,29.111C476.764,59.854,474.61,65.902,471.106,70.749z"/>
		<path fill="#404041" d="M492.304,18.068v7.609h23.733v63.069h8.055V25.678h23.752v-7.609H492.304z"/>
	</g>
	<path fill-rule="evenodd" clip-rule="evenodd" fill="#C53620" d="M99.071,34.455V0H55.248v56.362h-8.969
		c-3.525,0-3.525,6.206,0,6.206h10.621c1.922,0,2.859,1.518,2.902,3.033c0.087,1.565-0.937,3.168-2.902,3.168H31.374
		c-3.569,0-3.569,6.207,0,6.207h15.262c3.971,0,3.971,6.201,0,6.201h-27.49c-3.883,0-3.883,6.202,0,6.202h34.32
		c1.203,0.043,2.009,0.671,2.454,1.516c0.671,1.294,0.444,3.038-0.671,4.019c-0.445,0.4-1.025,0.623-1.783,0.672h-16.6
		c-3.975,0-3.975,6.202,0,6.202h18.383v7.186H127.5V34.455H99.071z M91.397,90.949c-11.157,0-20.217-9.105-20.217-20.262
		s9.06-20.256,20.217-20.256c3.569,0,6.873,1.024,9.771,2.633l-2.541,2.989c-2.188-1.072-4.598-1.743-7.23-1.743
		c-9.018,0-16.377,7.322-16.377,16.377c0,9.017,7.36,16.426,16.377,16.426c9.06,0,16.42-7.409,16.42-16.426
		c0-2.454-0.623-4.729-1.603-6.825L91.083,81.578l-11.2-9.417l3.168-3.478l7.543,6.293l12.896-15.311l2.497-2.945
		c3.482,3.617,5.67,8.524,5.67,13.967C111.657,81.844,102.554,90.949,91.397,90.949z"/>
	<g>
		<path fill-rule="evenodd" clip-rule="evenodd" fill="#C53620" d="M38.342,56.358h-8.255c-4.148,0-4.148,6.206,0,6.206h8.255
			C42.447,62.564,42.447,56.358,38.342,56.358z M21.791,68.762H2.771c-3.695,0-3.695,6.205,0,6.205h19.019
			C25.939,74.967,25.939,68.762,21.791,68.762z"/>
	</g>
	<polygon fill-rule="evenodd" clip-rule="evenodd" fill="#6CBD45" points="102.763,0.018 102.763,30.76 127.5,30.76 	"/>
</g>
</svg>
