<?xml version="1.0" encoding="UTF-8" standalone="no"?>
<!-- Generator: Adobe Illustrator 16.0.0, SVG Export Plug-In . SVG Version: 6.00 Build 0)  -->

<svg
   xmlns:dc="http://purl.org/dc/elements/1.1/"
   xmlns:cc="http://creativecommons.org/ns#"
   xmlns:rdf="http://www.w3.org/1999/02/22-rdf-syntax-ns#"
   xmlns:svg="http://www.w3.org/2000/svg"
   xmlns="http://www.w3.org/2000/svg"
   xmlns:sodipodi="http://sodipodi.sourceforge.net/DTD/sodipodi-0.dtd"
   xmlns:inkscape="http://www.inkscape.org/namespaces/inkscape"
   version="1.1"
   id="Vrstva_1"
   x="0px"
   y="0px"
   width="277"
   height="53"
   viewBox="0 0 277 53"
   enable-background="new 0 0 547.844 106.974"
   xml:space="preserve"
   sodipodi:docname="logo.svg"
   inkscape:version="0.92.4 (5da689c313, 2019-01-14)"><metadata
   id="metadata31"><rdf:RDF><cc:Work
       rdf:about=""><dc:format>image/svg+xml</dc:format><dc:type
         rdf:resource="http://purl.org/dc/dcmitype/StillImage" /><dc:title></dc:title></cc:Work></rdf:RDF></metadata><defs
   id="defs29" /><sodipodi:namedview
   pagecolor="#ffffff"
   bordercolor="#666666"
   borderopacity="1"
   objecttolerance="10"
   gridtolerance="10"
   guidetolerance="10"
   inkscape:pageopacity="0"
   inkscape:pageshadow="2"
   inkscape:window-width="3840"
   inkscape:window-height="2035"
   id="namedview27"
   showgrid="false"
   inkscape:zoom="2.0335109"
   inkscape:cx="31.268682"
   inkscape:cy="130.68732"
   inkscape:window-x="-13"
   inkscape:window-y="-13"
   inkscape:window-maximized="1"
   inkscape:current-layer="Vrstva_1" />
<g
   id="g24"
   transform="matrix(0.5,0,0,0.5,0.96094,0.769501)">
	<g
   id="g14">
		<path
   d="m 197.49,18.068 h -26.593 v 70.679 h 15.742 V 63.314 h 10.852 c 14.356,0 24.222,-9.256 24.222,-22.619 -0.001,-13.152 -9.867,-22.627 -24.223,-22.627 z m -1.586,31.71 h -9.179 V 31.744 h 9.179 c 5.961,0 10.075,3.373 10.075,9.03 0,5.5 -4.114,9.004 -10.075,9.004 z"
   id="path2"
   inkscape:connector-curvature="0"
   style="fill:#404041" />
		<path
   d="M 255.069,18.068 H 229.46 v 70.679 h 25.513 c 21.328,0 35.597,-13.457 35.597,-35.3 -10e-4,-21.843 -14.269,-35.379 -35.501,-35.379 z m -0.697,55.801 h -9.169 V 32.903 h 9.169 c 10.858,0 19.767,6.406 19.767,20.544 0,14.147 -8.909,20.422 -19.767,20.422 z"
   id="path4"
   inkscape:connector-curvature="0"
   style="fill:#404041" />
		<path
   d="M 344.854,33.035 V 18.068 h -45.541 v 70.679 h 15.879 V 62.32 h 26.072 V 47.957 H 315.053 V 33.035 Z"
   id="path6"
   inkscape:connector-curvature="0"
   style="fill:#404041" />
		<path
   d="M 394.169,64.265 V 18.068 h -9.264 l -35.032,46.807 1.038,6.693 h 35.258 v 17.179 h 8 V 71.568 h 10.59 v -7.304 h -10.59 z m -8,0 H 359 l 27.169,-36.503 z"
   id="path8"
   inkscape:connector-curvature="0"
   style="fill:#404041" />
		<path
   d="m 484.912,53.369 c 0,-19.855 -16.48,-36.512 -36.128,-36.512 -19.507,0 -36.198,16.657 -36.198,36.512 0,19.847 16.691,36.59 36.198,36.59 8.523,0 16.491,-3.207 22.75,-8.438 l 8.228,7.226 5.15,-5.97 -7.922,-6.877 c 4.925,-6.319 7.922,-14.102 7.922,-22.531 z m -13.806,17.38 -11.287,-9.771 -5.144,5.971 10.984,9.553 c -4.717,3.809 -10.6,6.058 -16.876,6.058 -15.218,0 -28.065,-13.362 -28.065,-29.191 0,-15.741 12.848,-29.111 28.065,-29.111 15.235,0 27.979,13.371 27.979,29.111 0.002,6.485 -2.152,12.533 -5.656,17.38 z"
   id="path10"
   inkscape:connector-curvature="0"
   style="fill:#404041" />
		<path
   d="m 492.304,18.068 v 7.609 h 23.733 v 63.069 h 8.055 V 25.678 h 23.752 v -7.609 h -55.54 z"
   id="path12"
   inkscape:connector-curvature="0"
   style="fill:#404041" />
	</g>
	<path
   d="M 99.071,34.455 V 0 H 55.248 v 56.362 h -8.969 c -3.525,0 -3.525,6.206 0,6.206 H 56.9 c 1.922,0 2.859,1.518 2.902,3.033 0.087,1.565 -0.937,3.168 -2.902,3.168 H 31.374 c -3.569,0 -3.569,6.207 0,6.207 h 15.262 c 3.971,0 3.971,6.201 0,6.201 h -27.49 c -3.883,0 -3.883,6.202 0,6.202 h 34.32 c 1.203,0.043 2.009,0.671 2.454,1.516 0.671,1.294 0.444,3.038 -0.671,4.019 -0.445,0.4 -1.025,0.623 -1.783,0.672 h -16.6 c -3.975,0 -3.975,6.202 0,6.202 h 18.383 v 7.186 H 127.5 V 34.455 Z m -7.674,56.494 c -11.157,0 -20.217,-9.105 -20.217,-20.262 0,-11.157 9.06,-20.256 20.217,-20.256 3.569,0 6.873,1.024 9.771,2.633 l -2.541,2.989 c -2.188,-1.072 -4.598,-1.743 -7.23,-1.743 -9.018,0 -16.377,7.322 -16.377,16.377 0,9.017 7.36,16.426 16.377,16.426 9.06,0 16.42,-7.409 16.42,-16.426 0,-2.454 -0.623,-4.729 -1.603,-6.825 l -15.131,17.716 -11.2,-9.417 3.168,-3.478 7.543,6.293 12.896,-15.311 2.497,-2.945 c 3.482,3.617 5.67,8.524 5.67,13.967 0,11.157 -9.103,20.262 -20.26,20.262 z"
   id="path16"
   inkscape:connector-curvature="0"
   style="clip-rule:evenodd;fill:#c53620;fill-rule:evenodd" />
	<g
   id="g20">
		<path
   d="m 38.342,56.358 h -8.255 c -4.148,0 -4.148,6.206 0,6.206 h 8.255 c 4.105,0 4.105,-6.206 0,-6.206 z M 21.791,68.762 H 2.771 c -3.695,0 -3.695,6.205 0,6.205 H 21.79 c 4.149,0 4.149,-6.205 0.001,-6.205 z"
   id="path18"
   inkscape:connector-curvature="0"
   style="clip-rule:evenodd;fill:#c53620;fill-rule:evenodd" />
	</g>
	<polygon
   points="102.763,0.018 102.763,30.76 127.5,30.76 "
   id="polygon22"
   style="clip-rule:evenodd;fill:#6cbd45;fill-rule:evenodd" />
</g>
</svg>